<svg width="32" height="32" viewBox="0 0 32 32" fill="none" xmlns="http://www.w3.org/2000/svg">
<g clip-path="url(#clip0_232_127)">
<path d="M25.2226 17.2142C25.2742 16.8267 25.3001 16.4263 25.3001 16C25.3001 15.5867 25.2742 15.1733 25.2096 14.7858L27.8317 12.745C28.0642 12.5642 28.1288 12.2154 27.9867 11.9571L25.5067 7.66876C25.3517 7.38459 25.0288 7.29417 24.7446 7.38459L21.6576 8.62459C21.0117 8.13376 20.3271 7.72042 19.5651 7.41042L19.1001 4.12959C19.0484 3.81959 18.7901 3.60001 18.4801 3.60001H13.5201C13.2101 3.60001 12.9646 3.81959 12.913 4.12959L12.448 7.41042C11.6859 7.72042 10.9884 8.14667 10.3555 8.62459L7.26839 7.38459C6.98423 7.28126 6.66131 7.38459 6.50631 7.66876L4.03923 11.9571C3.88423 12.2283 3.93589 12.5642 4.19423 12.745L6.81631 14.7858C6.75173 15.1733 6.70006 15.5996 6.70006 16C6.70006 16.4004 6.72589 16.8267 6.79048 17.2142L4.16839 19.255C3.93589 19.4358 3.87131 19.7846 4.01339 20.0429L6.49339 24.3313C6.64839 24.6154 6.97131 24.7058 7.25548 24.6154L10.3426 23.3754C10.9884 23.8663 11.673 24.2796 12.4351 24.5896L12.9001 27.8704C12.9646 28.1804 13.2101 28.4 13.5201 28.4H18.4801C18.7901 28.4 19.0484 28.1804 19.0871 27.8704L19.5521 24.5896C20.3142 24.2796 21.0117 23.8663 21.6446 23.3754L24.7317 24.6154C25.0159 24.7188 25.3388 24.6154 25.4938 24.3313L27.9738 20.0429C28.1288 19.7588 28.0642 19.4358 27.8188 19.255L25.2226 17.2142ZM16.0001 20.65C13.4426 20.65 11.3501 18.5575 11.3501 16C11.3501 13.4425 13.4426 11.35 16.0001 11.35C18.5576 11.35 20.6501 13.4425 20.6501 16C20.6501 18.5575 18.5576 20.65 16.0001 20.65Z" fill="#272727"/>
</g>
<defs>
<clipPath id="clip0_232_127">
<rect width="31" height="31" fill="white" transform="translate(0.5 0.5)"/>
</clipPath>
</defs>
</svg>
