<svg width="41" height="41" viewBox="0 0 41 41" fill="none" xmlns="http://www.w3.org/2000/svg">
<g clip-path="url(#clip0_233_134)">
<path d="M39.2916 13.6667C39.2916 15.5458 37.7541 17.0833 35.8749 17.0833C35.5674 17.0833 35.277 17.0492 35.0037 16.9638L28.922 23.0283C29.0074 23.3017 29.0416 23.6092 29.0416 23.9167C29.0416 25.7958 27.5041 27.3333 25.6249 27.3333C23.7458 27.3333 22.2083 25.7958 22.2083 23.9167C22.2083 23.6092 22.2424 23.3017 22.3278 23.0283L17.9716 18.6721C17.6983 18.7575 17.3908 18.7917 17.0833 18.7917C16.7758 18.7917 16.4683 18.7575 16.1949 18.6721L8.422 26.4621C8.50742 26.7354 8.54158 27.0258 8.54158 27.3333C8.54158 29.2125 7.00409 30.75 5.12492 30.75C3.24575 30.75 1.70825 29.2125 1.70825 27.3333C1.70825 25.4542 3.24575 23.9167 5.12492 23.9167C5.43242 23.9167 5.72284 23.9508 5.99617 24.0363L13.7862 16.2633C13.7008 15.99 13.6666 15.6825 13.6666 15.375C13.6666 13.4958 15.2041 11.9583 17.0833 11.9583C18.9624 11.9583 20.4999 13.4958 20.4999 15.375C20.4999 15.6825 20.4658 15.99 20.3803 16.2633L24.7366 20.6196C25.0099 20.5342 25.3174 20.5 25.6249 20.5C25.9324 20.5 26.2399 20.5342 26.5133 20.6196L32.5778 14.5379C32.4924 14.2646 32.4583 13.9742 32.4583 13.6667C32.4583 11.7875 33.9958 10.25 35.8749 10.25C37.7541 10.25 39.2916 11.7875 39.2916 13.6667Z" fill="#272727"/>
</g>
<defs>
<clipPath id="clip0_233_134">
<rect width="41" height="41" fill="white"/>
</clipPath>
</defs>
</svg>
